<?xml version="1.0" standalone="no"?>
<!DOCTYPE svg PUBLIC "-//W3C//DTD SVG 20010904//EN"
 "http://www.w3.org/TR/2001/REC-SVG-20010904/DTD/svg10.dtd">
<svg version="1.0" xmlns="http://www.w3.org/2000/svg"
 width="700.000000pt" height="700.000000pt" viewBox="0 0 700.000000 700.000000"
 preserveAspectRatio="xMidYMid meet">
<metadata>
Created by potrace 1.11, written by Peter Selinger 2001-2013
</metadata>
<g transform="translate(0.000000,700.000000) scale(0.100000,-0.100000)"
fill="#000000" stroke="none">
<path d="M3402 6599 c-249 -45 -383 -328 -260 -548 56 -100 152 -169 263 -189
202 -35 395 100 432 304 46 253 -180 478 -435 433z"/>
<path d="M4310 5976 c-173 -45 -260 -229 -185 -389 49 -103 137 -160 250 -160
151 -1 269 104 282 254 18 192 -161 343 -347 295z"/>
<path d="M2683 5930 c-127 -65 -112 -246 25 -291 69 -23 160 20 188 87 57 137
-82 270 -213 204z"/>
<path d="M1955 5646 c-56 -16 -99 -41 -134 -78 -105 -111 -101 -286 8 -395
100 -100 269 -105 377 -10 156 137 120 384 -69 467 -57 25 -127 31 -182 16z"/>
<path d="M5047 5457 c-43 -11 -102 -72 -111 -117 -13 -66 25 -144 84 -175 122
-63 270 69 221 198 -29 76 -109 115 -194 94z"/>
<path d="M3425 5411 c-128 -33 -217 -153 -210 -286 4 -100 53 -179 140 -231
50 -29 73 -35 138 -35 124 0 229 76 267 194 56 173 -68 354 -250 363 -30 1
-68 -1 -85 -5z"/>
<path d="M1024 5186 c-158 -58 -248 -185 -247 -351 0 -105 27 -176 94 -250
164 -179 450 -160 586 39 136 199 47 479 -179 562 -70 27 -182 26 -254 0z"/>
<path d="M5739 5191 c-324 -105 -352 -547 -44 -696 53 -26 71 -29 155 -30 88
0 101 3 162 33 134 66 211 188 211 337 0 104 -27 175 -94 249 -101 110 -253
152 -390 107z"/>
<path d="M4136 4914 c-92 -63 -93 -189 -2 -259 63 -48 170 -30 217 36 41 58
34 155 -15 205 -50 49 -141 58 -200 18z"/>
<path d="M2642 4893 c-87 -57 -95 -173 -16 -246 25 -24 63 -39 104 -42 55 -3
135 58 150 117 39 141 -114 251 -238 171z"/>
<path d="M2025 4600 c-138 -20 -239 -139 -238 -280 2 -162 126 -280 289 -275
288 8 373 396 116 529 -39 20 -120 33 -167 26z"/>
<path d="M4881 4568 c-145 -22 -243 -145 -236 -294 8 -178 183 -301 356 -251
185 54 262 271 153 429 -62 89 -164 132 -273 116z"/>
<path d="M3435 4278 c-76 -42 -92 -148 -31 -202 81 -71 197 -29 210 77 11 92
-99 170 -179 125z"/>
<path d="M1085 4122 c-67 -22 -107 -80 -107 -152 2 -156 201 -211 289 -81 79
117 -46 277 -182 233z"/>
<path d="M5757 4096 c-126 -47 -200 -157 -190 -285 5 -73 33 -132 86 -183 175
-171 473 -43 471 202 -1 111 -56 200 -154 250 -56 29 -159 36 -213 16z"/>
<path d="M2859 3952 c-96 -49 -98 -176 -4 -222 37 -18 49 -20 84 -10 41 11 90
58 92 88 4 40 -3 78 -16 99 -34 52 -103 71 -156 45z"/>
<path d="M4008 3944 c-52 -28 -76 -112 -48 -165 60 -112 227 -75 236 52 3 44
-27 96 -66 116 -33 17 -89 16 -122 -3z"/>
<path d="M4875 3656 c-39 -17 -64 -46 -80 -93 -58 -169 173 -287 277 -141 32
46 34 128 5 174 -43 65 -131 91 -202 60z"/>
<path d="M2017 3646 c-130 -47 -138 -225 -13 -285 50 -25 81 -26 129 -6 121
50 130 222 14 282 -44 22 -85 25 -130 9z"/>
<path d="M1060 3423 c-79 -27 -133 -73 -173 -148 -31 -57 -30 -182 1 -242 73
-140 237 -197 374 -130 100 49 144 115 162 242 4 30 -12 95 -36 143 -57 113
-208 175 -328 135z"/>
<path d="M2842 3270 c-40 -25 -63 -74 -55 -121 7 -48 19 -67 56 -89 66 -41
146 -17 177 52 19 42 19 64 0 108 -26 61 -119 88 -178 50z"/>
<path d="M4025 3255 c-52 -22 -78 -59 -78 -109 0 -76 49 -127 122 -128 71 -1
124 51 124 122 0 88 -89 149 -168 115z"/>
<path d="M5815 3145 c-65 -23 -105 -79 -105 -148 0 -49 12 -77 50 -114 116
-114 313 15 253 167 -34 84 -115 123 -198 95z"/>
<path d="M3490 2969 c-20 -4 -47 -21 -63 -40 -27 -29 -29 -37 -25 -87 4 -48
10 -60 37 -83 46 -38 85 -44 137 -19 43 21 74 67 74 109 0 31 -36 97 -57 106
-43 17 -70 21 -103 14z"/>
<path d="M2023 2949 c-95 -17 -186 -95 -215 -186 -69 -211 125 -419 337 -362
59 16 129 66 162 118 134 207 -40 471 -284 430z"/>
<path d="M4835 2918 c-39 -14 -105 -60 -129 -89 -56 -67 -76 -181 -47 -266 25
-75 72 -127 147 -164 58 -29 70 -31 132 -27 50 4 83 13 121 34 197 106 193
394 -6 494 -55 28 -167 37 -218 18z"/>
<path d="M1035 2501 c-201 -69 -307 -277 -241 -473 50 -150 173 -243 336 -255
108 -8 234 45 303 128 134 162 113 402 -47 531 -32 26 -80 54 -105 63 -69 25
-185 27 -246 6z"/>
<path d="M5775 2505 c-298 -68 -400 -432 -178 -635 64 -59 100 -78 178 -94
195 -42 391 78 440 269 69 269 -173 521 -440 460z"/>
<path d="M2643 2410 c-90 -46 -114 -153 -53 -236 86 -118 280 -52 280 96 0
117 -123 192 -227 140z"/>
<path d="M4157 2396 c-56 -29 -79 -65 -85 -128 -3 -44 0 -59 20 -87 53 -78
134 -101 208 -60 65 37 87 84 81 176 -2 35 -67 101 -110 112 -50 13 -68 11
-114 -13z"/>
<path d="M3465 2110 c-99 -14 -194 -93 -226 -188 -63 -188 92 -386 288 -368
195 17 312 214 234 392 -51 114 -172 182 -296 164z"/>
<path d="M4842 1879 c-135 -67 -192 -226 -129 -362 29 -63 72 -109 129 -139
58 -31 184 -32 243 -3 66 32 128 102 149 167 75 240 -168 449 -392 337z"/>
<path d="M1829 1830 c-74 -20 -125 -93 -116 -167 12 -109 133 -177 227 -128
136 70 100 282 -51 298 -19 2 -46 0 -60 -3z"/>
<path d="M2529 1497 c-202 -57 -269 -317 -119 -467 111 -111 283 -110 401 3
79 76 100 226 44 325 -65 119 -197 175 -326 139z"/>
<path d="M4163 1361 c-109 -51 -121 -202 -21 -268 84 -56 196 -26 234 64 57
133 -82 265 -213 204z"/>
<path d="M3400 1138 c-55 -9 -156 -61 -191 -97 -131 -138 -150 -323 -49 -481
81 -126 249 -191 400 -154 153 37 277 186 284 342 5 95 -34 204 -96 273 -84
92 -223 139 -348 117z"/>
</g>
</svg>
